HIERARCHY
ROOT Hips
{
	OFFSET 0.000000 0.000000 0.000000
	CHANNELS 6 Xposition Yposition Zposition Zrotation Yrotation Xrotation 
	JOINT LHipJoint
	{
		OFFSET 0.000000 0.000000 0.000000
		CHANNELS 3 Zrotation Yrotation Xrotation
		JOINT LeftUpLeg
		{
			OFFSET 1.363060 -1.794630 0.839290
			CHANNELS 3 Zrotation Yrotation Xrotation
			JOINT LeftLeg
			{
				OFFSET 2.448110 -6.726130 0.000000
				CHANNELS 3 Zrotation Yrotation Xrotation
				JOINT LeftFoot
				{
					OFFSET 2.562200 -7.039590 0.000000
					CHANNELS 3 Zrotation Yrotation Xrotation
					JOINT LeftToeBase
					{
						OFFSET 0.157640 -0.433110 2.322550
						CHANNELS 3 Zrotation Yrotation Xrotation
						End Site
						{
							OFFSET 0.000000 0.000000 0.000000
						}
					}
				}
			}
		}
	}
	JOINT RHipJoint
	{
		OFFSET 0.000000 0.000000 0.000000
		CHANNELS 3 Zrotation Yrotation Xrotation
		JOINT RightUpLeg
		{
			OFFSET -1.305520 -1.794630 0.839290
			CHANNELS 3 Zrotation Yrotation Xrotation
			JOINT RightLeg
			{
				OFFSET -2.542530 -6.985550 0.000000
				CHANNELS 3 Zrotation Yrotation Xrotation
				JOINT RightFoot
				{
					OFFSET -2.568260 -7.056230 0.000000
					CHANNELS 3 Zrotation Yrotation Xrotation
					JOINT RightToeBase
					{
						OFFSET -0.164730 -0.452590 2.363150
						CHANNELS 3 Zrotation Yrotation Xrotation
						End Site
						{
							OFFSET 0.000000 0.000000 0.000000
						}
					}
				}
			}
		}
	}
	JOINT LowerBack
	{
		OFFSET 0.000000 0.000000 0.000000
		CHANNELS 3 Zrotation Yrotation Xrotation
		JOINT Spine
		{
			OFFSET 0.028270 2.035590 -0.193380
			CHANNELS 3 Zrotation Yrotation Xrotation
			JOINT Spine1
			{
				OFFSET 0.056720 2.048850 -0.042750
				CHANNELS 3 Zrotation Yrotation Xrotation
				JOINT Neck
				{
					OFFSET 0.000000 0.000000 0.000000
					CHANNELS 3 Zrotation Yrotation Xrotation
					JOINT Neck1
					{
						OFFSET -0.054170 1.746240 0.172020
						CHANNELS 3 Zrotation Yrotation Xrotation
						JOINT Head
						{
							OFFSET 0.104070 1.761360 -0.123970
							CHANNELS 3 Zrotation Yrotation Xrotation
							End Site
							{
								OFFSET 0.000000 0.000000 0.000000
							}
						}
					}
				}
				JOINT LeftShoulder
				{
					OFFSET 0.000000 0.000000 0.000000
					CHANNELS 3 Zrotation Yrotation Xrotation
					JOINT LeftArm
					{
						OFFSET 3.362410 1.200890 -0.311210
						CHANNELS 3 Zrotation Yrotation Xrotation
						JOINT LeftForeArm
						{
							OFFSET 4.983000 -0.000000 -0.000000
							CHANNELS 3 Zrotation Yrotation Xrotation
							JOINT LeftHand
							{
								OFFSET 3.483560 -0.000000 -0.000000
								CHANNELS 3 Zrotation Yrotation Xrotation
								JOINT LeftFingerBase
								{
									OFFSET 0.000000 0.000000 0.000000
									CHANNELS 3 Zrotation Yrotation Xrotation
									JOINT LeftHandIndex1
									{
										OFFSET 0.715260 -0.000000 -0.000000
										CHANNELS 3 Zrotation Yrotation Xrotation
										End Site
										{
											OFFSET 0.000000 0.000000 0.000000
										}
									}
								}
								JOINT LThumb
								{
									OFFSET 0.000000 0.000000 0.000000
									CHANNELS 3 Zrotation Yrotation Xrotation
									End Site
									{
										OFFSET 0.000000 0.000000 0.000000
									}
								}
							}
						}
					}
				}
				JOINT RightShoulder
				{
					OFFSET 0.000000 0.000000 0.000000
					CHANNELS 3 Zrotation Yrotation Xrotation
					JOINT RightArm
					{
						OFFSET -3.136600 1.374050 -0.404650
						CHANNELS 3 Zrotation Yrotation Xrotation
						JOINT RightForeArm
						{
							OFFSET -5.241900 -0.000000 -0.000000
							CHANNELS 3 Zrotation Yrotation Xrotation
							JOINT RightHand
							{
								OFFSET -3.444170 -0.000000 -0.000000
								CHANNELS 3 Zrotation Yrotation Xrotation
								JOINT RightFingerBase
								{
									OFFSET 0.000000 0.000000 0.000000
									CHANNELS 3 Zrotation Yrotation Xrotation
									JOINT RightHandIndex1
									{
										OFFSET -0.622530 -0.000000 -0.000000
										CHANNELS 3 Zrotation Yrotation Xrotation
										End Site
										{
											OFFSET 0.000000 0.000000 0.000000
										}
									}
								}
								JOINT RThumb
								{
									OFFSET 0.000000 0.000000 0.000000
									CHANNELS 3 Zrotation Yrotation Xrotation
									End Site
									{
										OFFSET 0.000000 0.000000 0.000000
									}
								}
							}
						}
					}
				}
			}
		}
	}
}
MOTION
Frames: 8
Frame Time: 0.008333
-1.341843 16.360803 -1.957914 -149.882485 72.411886 -140.837295 -11.323179 0.705681 2.268438 -20.485569 1.263217 -35.694122 -2.208585 0.045065 20.996607 2.525791 10.142611 -15.283742 178.726600 -0.000000 -13.852399 9.022979 -2.185202 -2.497860 0.931231 -14.518638 -19.664027 -0.729699 -3.093799 55.168036 -0.910815 0.206979 18.737333 0.465900 0.000001 -77.002300 4.150752 -0.695881 -0.561015 -0.189650 -1.041243 -3.205210 -7.298566 -1.112306 0.221509 9.885784 -4.087301 -6.446052 -3.801135 -0.307990 0.326623 0.000000 0.000000 0.000000 -7.089213 8.520450 1.906047 -69.577435 18.419388 16.923651 -3.006298 -22.475332 -0.010660 -3.651804 7.526218 -0.240594 -0.038433 -0.083022 -0.000000 0.000000 0.000000 0.000000 0.000000 0.000000 0.000000 16.297716 -0.315919 1.431768 53.439588 13.254685 3.963126 3.006539 32.837370 0.008784 -3.135115 6.356459 -0.184188 0.129111 -0.131058 0.000000 0.000000 0.000000 0.000000 0.000000 0.000000 0.000000 
-1.158778 16.332342 -2.037642 -152.413849 71.599585 -142.932774 -11.119101 0.739766 2.513031 -20.589876 -0.884293 -35.473038 -2.081720 0.165972 22.664873 2.669851 10.762100 -15.765839 178.569200 -0.000000 -14.697300 9.212631 -1.910554 -2.324426 0.620894 -13.152373 -21.405923 -0.927269 -3.188751 57.710770 -1.128930 -1.998183 17.546173 -0.413901 -0.000000 -73.127699 3.818487 -0.773684 -0.934766 -0.251016 -1.117433 -3.255984 -7.316320 -1.189978 0.285029 9.950395 -4.366528 -6.639392 -3.811378 -0.307287 0.274920 0.000000 0.000000 0.000000 -7.079491 8.642546 1.877342 -68.703025 17.447635 17.448579 -3.023058 -22.871196 -0.010400 -3.448621 7.352831 -0.221561 -0.041514 -0.079909 -0.000000 0.000000 0.000000 0.000000 0.000000 0.000000 0.000000 16.447736 -0.629219 1.446428 53.387916 12.269781 3.333683 3.041778 32.158183 0.008724 -3.636954 6.489480 -0.217186 0.134079 -0.127633 0.000000 0.000000 0.000000 0.000000 0.000000 0.000000 0.000000 
-0.980319 16.312463 -2.118786 -154.857546 70.752563 -144.925536 -10.911941 0.751730 2.714148 -20.800755 -2.851495 -35.096509 -1.986025 0.244482 23.965415 2.811001 11.319651 -16.371024 178.375200 -0.000000 -15.259300 9.378676 -1.635980 -2.120197 0.287638 -11.638189 -23.108480 -1.092916 -3.280464 59.833923 -1.355784 -4.320715 15.902389 -1.266501 0.000000 -69.404000 3.488902 -0.843884 -1.276423 -0.311461 -1.184011 -3.301868 -7.328168 -1.258321 0.342620 9.974155 -4.620242 -6.832672 -3.821799 -0.306468 0.222182 0.000000 0.000000 0.000000 -7.123937 8.759079 1.856296 -67.821431 16.279987 17.811919 -3.036918 -23.208276 -0.009762 -3.052496 7.103725 -0.188917 -0.044723 -0.075628 -0.000000 0.000000 0.000000 0.000000 0.000000 0.000000 0.000000 16.546012 -0.915586 1.459222 53.442467 11.193290 2.612485 3.077931 31.387782 0.008637 -4.179536 6.617768 -0.253589 0.138902 -0.124051 0.000000 0.000000 0.000000 0.000000 0.000000 0.000000 0.000000 
-0.806425 16.301630 -2.202860 -157.128544 69.868279 -146.744279 -10.716286 0.743231 2.867929 -21.082679 -4.588786 -34.540605 -1.922264 0.280691 24.863190 2.944554 11.797107 -17.075701 178.149500 0.000000 -15.586600 9.509930 -1.369340 -1.882327 -0.057136 -9.988469 -24.749902 -1.224964 -3.362158 61.493246 -1.589464 -6.626421 13.918726 -1.998201 0.000000 -65.929400 3.194441 -0.902086 -1.587293 -0.364920 -1.238760 -3.343828 -7.333392 -1.315077 0.392485 9.948556 -4.799854 -7.010795 -3.833053 -0.305718 0.172542 0.000000 0.000000 0.000000 -7.219356 8.892307 1.845185 -66.966604 14.908853 18.013477 -3.047988 -23.458920 -0.008803 -2.465058 6.790196 -0.144968 -0.047996 -0.070083 -0.000000 0.000000 0.000000 0.000000 0.000000 0.000000 0.000000 16.576858 -1.124829 1.467046 53.608699 9.973912 1.747085 3.116857 30.537252 0.008576 -4.687600 6.722602 -0.288097 0.142942 -0.120121 0.000000 0.000000 0.000000 0.000000 0.000000 0.000000 0.000000 
-0.636660 16.300063 -2.290723 -159.193962 68.945130 -148.367078 -10.540012 0.718967 2.975664 -21.407194 -6.080077 -33.778869 -1.888404 0.275528 25.331405 3.064141 12.179497 -17.821484 177.908600 0.000000 -15.692000 9.602116 -1.116150 -1.611388 -0.416972 -8.229263 -26.311517 -1.320604 -3.428442 62.661824 -1.822773 -8.775767 11.711001 -2.538001 0.000000 -62.657900 2.948847 -0.946507 -1.869849 -0.409238 -1.281052 -3.379862 -7.335290 -1.358815 0.441221 9.887570 -5.031992 -7.183167 -3.845084 -0.305049 0.124096 0.000000 0.000000 0.000000 -7.387964 8.934456 1.827074 -66.160699 13.488735 17.889702 -3.054878 -23.724284 -0.007635 -1.707528 6.438917 -0.094116 -0.050867 -0.064099 -0.000000 0.000000 0.000000 0.000000 0.000000 0.000000 0.000000 16.583740 -1.403279 1.481394 53.820163 8.817822 0.979783 3.167951 29.492621 0.008602 -5.189481 6.794278 -0.321511 0.147068 -0.115353 0.000000 0.000000 0.000000 0.000000 0.000000 0.000000 0.000000 
-0.470818 16.307123 -2.383663 -160.990936 67.974253 -149.740093 -10.396923 0.683097 3.043036 -21.724767 -7.314825 -32.818976 -1.879702 0.233624 25.386537 3.157464 12.426828 -18.545550 177.676400 -0.000000 -15.611000 9.646452 -0.883938 -1.308149 -0.767450 -6.385074 -27.783620 -1.377751 -3.472327 63.326487 -2.045642 -10.658431 9.404902 -2.856499 -0.000000 -59.633400 2.785541 -0.975605 -2.134906 -0.437624 -1.312221 -3.413785 -7.331148 -1.391205 0.484942 9.778607 -5.187120 -7.325388 -3.858136 -0.304668 0.083412 0.000000 0.000000 0.000000 -7.597235 8.983223 1.813076 -65.432751 11.934673 17.587570 -3.057825 -23.929826 -0.006348 -0.805286 6.043624 -0.040061 -0.053428 -0.057239 -0.000000 0.000000 0.000000 0.000000 0.000000 0.000000 0.000000 16.528014 -1.608960 1.490107 54.114030 7.546479 0.108202 3.229045 28.345281 0.008753 -5.549834 6.809096 -0.344033 0.150025 -0.109909 0.000000 0.000000 0.000000 0.000000 0.000000 0.000000 0.000000 
-0.308306 16.321962 -2.482113 -162.513334 66.946560 -150.861799 -10.293223 0.641346 3.078882 -22.000053 -8.308063 -31.669137 -1.890758 0.159982 25.051744 3.211614 12.503406 -19.168711 177.484801 -0.000000 -15.368700 9.641418 -0.677388 -0.976913 -1.098675 -4.492464 -29.161196 -1.395167 -3.490298 63.493333 -2.245105 -12.184384 7.111923 -2.957900 -0.000000 -56.829201 2.716188 -0.990538 -2.391695 -0.447924 -1.334902 -3.446270 -7.322488 -1.414526 0.526827 9.631830 -5.310108 -7.438087 -3.871880 -0.304611 0.050811 0.000000 0.000000 0.000000 -7.842938 9.002601 1.796049 -64.796583 10.322119 17.088759 -3.055781 -24.130792 -0.005068 0.199095 5.614560 0.012693 -0.055457 -0.049952 -0.000000 0.000000 0.000000 0.000000 0.000000 0.000000 0.000000 16.430391 -1.794829 1.495962 54.459473 6.231545 -0.784375 3.304953 27.068629 0.009041 -5.746661 6.753853 -0.352961 0.152109 -0.103689 0.000000 0.000000 0.000000 0.000000 0.000000 0.000000 0.000000 
-0.148580 16.343380 -2.586392 -163.760732 65.847206 -151.733336 -10.234346 0.598572 3.094758 -22.197906 -9.087363 -30.355706 -1.915289 0.061315 24.373628 3.213845 12.373564 -19.619796 177.364800 0.000000 -15.014001 9.586377 -0.500221 -0.622925 -1.395332 -2.589607 -30.446682 -1.373218 -3.480267 63.182467 -2.409400 -13.303730 4.931894 -2.878900 0.000001 -54.253200 2.749021 -0.994240 -2.651503 -0.438528 -1.353419 -3.478867 -7.310313 -1.432936 0.568977 9.455886 -5.411469 -7.520005 -3.885687 -0.304879 0.026995 0.000000 0.000000 0.000000 -8.111038 8.990646 1.773559 -64.260484 8.684304 16.440318 -3.048120 -24.357681 -0.003904 1.256455 5.156595 0.059744 -0.056921 -0.042464 -0.000000 0.000000 0.000000 0.000000 0.000000 0.000000 0.000000 16.300992 -1.974087 1.497808 54.842376 4.888642 -1.682076 3.397906 25.673425 0.009447 -5.746290 6.616181 -0.345495 0.153390 -0.096749 0.000000 0.000000 0.000000 0.000000 0.000000 0.000000 0.000000 
